<svg width="24" height="24" viewBox="0 0 24 24" fill="none" xmlns="http://www.w3.org/2000/svg">
<rect width="24" height="24" rx="4" fill="#F00304"/>
<path d="M19.265 7.74998C19.193 7.70506 19.1108 7.67919 19.026 7.67482C18.9413 7.67044 18.8569 7.68771 18.7806 7.72498C16.0975 9.03748 14.1813 8.42248 12.1556 7.77373C10.025 7.09561 7.825 6.39248 4.78062 7.87873C4.69655 7.91978 4.62568 7.9836 4.57607 8.06293C4.52646 8.14226 4.5001 8.23392 4.5 8.32748V15.8231C4.49999 15.9079 4.52156 15.9914 4.56269 16.0656C4.60382 16.1398 4.66315 16.2023 4.7351 16.2472C4.80705 16.2922 4.88925 16.3181 4.97397 16.3225C5.05869 16.3269 5.14314 16.3097 5.21938 16.2725C7.9025 14.96 9.81875 15.575 11.8475 16.2237C13.05 16.6081 14.275 17 15.66 17C16.7281 17 17.8931 16.7675 19.2169 16.1212C19.301 16.0802 19.3718 16.0164 19.4214 15.937C19.471 15.8577 19.4974 15.766 19.4975 15.6725V8.17686C19.4983 8.0918 19.4773 8.00796 19.4366 7.93326C19.3959 7.85857 19.3369 7.79548 19.265 7.74998ZM7 13.5C7 13.6326 6.94732 13.7598 6.85355 13.8535C6.75979 13.9473 6.63261 14 6.5 14C6.36739 14 6.24021 13.9473 6.14645 13.8535C6.05268 13.7598 6 13.6326 6 13.5V9.49998C6 9.36737 6.05268 9.2402 6.14645 9.14643C6.24021 9.05266 6.36739 8.99998 6.5 8.99998C6.63261 8.99998 6.75979 9.05266 6.85355 9.14643C6.94732 9.2402 7 9.36737 7 9.49998V13.5ZM12 14C11.6044 14 11.2178 13.8827 10.8889 13.6629C10.56 13.4432 10.3036 13.1308 10.1522 12.7653C10.0009 12.3999 9.96126 11.9978 10.0384 11.6098C10.1156 11.2218 10.3061 10.8655 10.5858 10.5858C10.8655 10.3061 11.2219 10.1156 11.6098 10.0384C11.9978 9.96124 12.3999 10.0008 12.7654 10.1522C13.1308 10.3036 13.4432 10.5599 13.6629 10.8888C13.8827 11.2177 14 11.6044 14 12C14 12.5304 13.7893 13.0391 13.4142 13.4142C13.0391 13.7893 12.5304 14 12 14ZM18 14.5C18 14.6326 17.9473 14.7598 17.8536 14.8535C17.7598 14.9473 17.6326 15 17.5 15C17.3674 15 17.2402 14.9473 17.1464 14.8535C17.0527 14.7598 17 14.6326 17 14.5V10.5C17 10.3674 17.0527 10.2402 17.1464 10.1464C17.2402 10.0527 17.3674 9.99998 17.5 9.99998C17.6326 9.99998 17.7598 10.0527 17.8536 10.1464C17.9473 10.2402 18 10.3674 18 10.5V14.5Z" fill="white"/>
</svg>