<svg width="24" height="24" viewBox="0 0 24 24" fill="none" xmlns="http://www.w3.org/2000/svg">
<rect width="24" height="24" rx="4" fill="#0033A5"/>
<path d="M12 5.5C10.7144 5.5 9.45772 5.88122 8.3888 6.59545C7.31988 7.30968 6.48676 8.32484 5.99479 9.51256C5.50282 10.7003 5.37409 12.0072 5.6249 13.2681C5.8757 14.529 6.49477 15.6872 7.40381 16.5962C8.31285 17.5052 9.47104 18.1243 10.7319 18.3751C11.9928 18.6259 13.2997 18.4972 14.4874 18.0052C15.6752 17.5132 16.6903 16.6801 17.4046 15.6112C18.1188 14.5423 18.5 13.2856 18.5 12C18.4982 10.2767 17.8128 8.62441 16.5942 7.40582C15.3756 6.18722 13.7234 5.50182 12 5.5ZM14.3538 10.3538L11.2069 13.5H13C13.1326 13.5 13.2598 13.5527 13.3536 13.6464C13.4473 13.7402 13.5 13.8674 13.5 14C13.5 14.1326 13.4473 14.2598 13.3536 14.3536C13.2598 14.4473 13.1326 14.5 13 14.5H10C9.86739 14.5 9.74022 14.4473 9.64645 14.3536C9.55268 14.2598 9.5 14.1326 9.5 14V11C9.5 10.8674 9.55268 10.7402 9.64645 10.6464C9.74022 10.5527 9.86739 10.5 10 10.5C10.1326 10.5 10.2598 10.5527 10.3536 10.6464C10.4473 10.7402 10.5 10.8674 10.5 11V12.7931L13.6463 9.64625C13.6927 9.59979 13.7479 9.56294 13.8086 9.5378C13.8693 9.51266 13.9343 9.49972 14 9.49972C14.0657 9.49972 14.1308 9.51266 14.1915 9.5378C14.2521 9.56294 14.3073 9.59979 14.3538 9.64625C14.4002 9.6927 14.4371 9.74786 14.4622 9.80855C14.4873 9.86925 14.5003 9.9343 14.5003 10C14.5003 10.0657 14.4873 10.1308 14.4622 10.1914C14.4371 10.2521 14.4002 10.3073 14.3538 10.3538Z" fill="white"/>
</svg>