<svg width="24" height="24" viewBox="0 0 24 24" fill="none" xmlns="http://www.w3.org/2000/svg">
<rect width="24" height="24" rx="4" fill="#D4EC00"/>
<path d="M12 5.5C10.7144 5.5 9.45772 5.88122 8.3888 6.59545C7.31988 7.30968 6.48676 8.32484 5.99479 9.51256C5.50282 10.7003 5.37409 12.0072 5.6249 13.2681C5.8757 14.529 6.49477 15.6872 7.40381 16.5962C8.31285 17.5052 9.47104 18.1243 10.7319 18.3751C11.9928 18.6259 13.2997 18.4972 14.4874 18.0052C15.6752 17.5132 16.6903 16.6801 17.4046 15.6112C18.1188 14.5423 18.5 13.2856 18.5 12C18.4982 10.2767 17.8128 8.62441 16.5942 7.40582C15.3756 6.18722 13.7234 5.50182 12 5.5ZM14.5 13C14.5 13.1326 14.4473 13.2598 14.3536 13.3536C14.2598 13.4473 14.1326 13.5 14 13.5C13.8674 13.5 13.7402 13.4473 13.6464 13.3536C13.5527 13.2598 13.5 13.1326 13.5 13V11.2069L10.3538 14.3538C10.3073 14.4002 10.2521 14.4371 10.1915 14.4622C10.1308 14.4873 10.0657 14.5003 10 14.5003C9.93431 14.5003 9.86925 14.4873 9.80855 14.4622C9.74786 14.4371 9.69271 14.4002 9.64625 14.3538C9.5998 14.3073 9.56295 14.2521 9.53781 14.1914C9.51266 14.1308 9.49972 14.0657 9.49972 14C9.49972 13.9343 9.51266 13.8692 9.53781 13.8086C9.56295 13.7479 9.5998 13.6927 9.64625 13.6462L12.7931 10.5H11C10.8674 10.5 10.7402 10.4473 10.6464 10.3536C10.5527 10.2598 10.5 10.1326 10.5 10C10.5 9.86739 10.5527 9.74021 10.6464 9.64645C10.7402 9.55268 10.8674 9.5 11 9.5H14C14.1326 9.5 14.2598 9.55268 14.3536 9.64645C14.4473 9.74021 14.5 9.86739 14.5 10V13Z" fill="white"/>
</svg>
